<svg xmlns:xlink="http://www.w3.org/1999/xlink" xmlns="http://www.w3.org/2000/svg" class="vtree" viewBox="63.56 279.08 841.03 145.95"><style>
.vtree-node text { font: 14px sans-serif; }
.vtree-link { fill: none; stroke: #888; stroke-width: 2px; }
.vtree-table { stroke-width: 2px; stroke: steelblue; }
path.vtree-table { fill: white; }
g.vtree-node rect { fill: white; stroke: black; stroke-width: 1px; }
g.vtree-node rect.number-text { fill: #d8f0ed; }
g.vtree-node rect.string-text { fill: #e7f0db; }
g.vtree-node rect.boolean-text { fill: #e1d8f0; }
g.vtree-node rect.null-text { fill: #888; }
</style><g class="vtree-root" transform="translate(379.3669487552139,265.0001538229404)scale(0.217637640824031)"><g class="vtree-node" transform="translate(480,67)"><g class="vtree-node" transform="translate(-163,0)"><path class="vtree-link" d="M163,12C163,59 1427,59 1427,106"/><path class="vtree-link" d="M163,12C163,59 -509,59 -509,106"/><g class="vtree-node" transform="translate(-648,74)"><path class="vtree-link" d="M139,32C139,79 1018,79 1018,126"/><path class="vtree-link" d="M139,32C139,79 -246,79 -246,126"/><g class="vtree-node" transform="translate(-405,94)"><path class="vtree-link" d="M159,32C159,79 703,79 703,126"/><path class="vtree-link" d="M159,32C159,79 -176,79 -176,126"/><g class="vtree-node" transform="translate(-337,94)"><path class="vtree-link" d="M161,32C161,79 382,79 382,126"/><path class="vtree-link" d="M161,32C161,79 -162,79 -162,126"/><g class="vtree-node" transform="translate(-315,94)"><path class="vtree-link" d="M153,32C153,79 206,79 206,126"/><path class="vtree-link" d="M153,32C153,75 -15,75 -15,118"/><g class="vtree-node" transform="translate(-30,94)"><path class="vtree-link" d="M15,24C15,67 15,67 15,110"/><g class="vtree-node" transform="translate(15,78)"><g class="vtree-node" transform="translate(-48,0)"><g transform="translate(26,20)"><rect class="string-text" x="0" y="0" width="44" height="24"/><text x="4" y="20">Frans</text></g><g><text x="48" y="16" text-anchor="middle">SOLUTION[0]</text></g></g></g><g transform="translate(7,20)"><g transform="translate(0,0)"><rect class="string-text" x="0" y="0" width="8" height="8"/><text x="4" y="4"> </text></g><g transform="translate(8,0)"><rect class="string-text" x="0" y="0" width="8" height="8"/><text x="4" y="4"> </text></g></g><g><text x="15" y="16" text-anchor="middle">NO</text></g></g><g class="vtree-node" transform="translate(43,94)"><path class="vtree-link" d="M163,32C163,75 216,75 216,118"/><path class="vtree-link" d="M163,32C163,75 110,75 110,118"/><g class="vtree-node" transform="translate(95,94)"><path class="vtree-link" d="M15,24C15,67 15,67 15,110"/><g class="vtree-node" transform="translate(15,78)"><g class="vtree-node" transform="translate(-48,0)"><g transform="translate(31,20)"><rect class="string-text" x="0" y="0" width="34" height="24"/><text x="4" y="20">Eric</text></g><g><text x="48" y="16" text-anchor="middle">SOLUTION[0]</text></g></g></g><g transform="translate(7,20)"><g transform="translate(0,0)"><rect class="string-text" x="0" y="0" width="8" height="8"/><text x="4" y="4"> </text></g><g transform="translate(8,0)"><rect class="string-text" x="0" y="0" width="8" height="8"/><text x="4" y="4"> </text></g></g><g><text x="15" y="16" text-anchor="middle">NO</text></g></g><g class="vtree-node" transform="translate(197,94)"><path class="vtree-link" d="M19,24C19,67 20,67 20,110"/><g class="vtree-node" transform="translate(19,78)"><g class="vtree-node" transform="translate(-48,0)"><g transform="translate(21,20)"><rect class="string-text" x="0" y="0" width="55" height="24"/><text x="4" y="20">George</text></g><g><text x="48" y="16" text-anchor="middle">SOLUTION[0]</text></g></g></g><g transform="translate(11,20)"><g transform="translate(0,0)"><rect class="string-text" x="0" y="0" width="8" height="8"/><text x="4" y="4"> </text></g><g transform="translate(8,0)"><rect class="string-text" x="0" y="0" width="8" height="8"/><text x="4" y="4"> </text></g></g><g><text x="19" y="16" text-anchor="middle">YES</text></g></g><g transform="translate(0,20)"><g transform="translate(0,0)"><rect class="string-text" x="0" y="0" width="96" height="24"/><text x="4" y="20">next_question</text></g><g transform="translate(96,0)"><rect class="string-text" x="0" y="0" width="229" height="24"/><text x="4" y="20">Does your character have white h...</text></g></g><g><text x="163" y="16" text-anchor="middle">YES</text></g></g><g transform="translate(0,20)"><g transform="translate(0,0)"><rect class="string-text" x="0" y="0" width="96" height="24"/><text x="4" y="20">next_question</text></g><g transform="translate(96,0)"><rect class="string-text" x="0" y="0" width="209" height="24"/><text x="4" y="20">Is your character wearing a hat?</text></g></g><g><text x="153" y="16" text-anchor="middle">NO</text></g></g><g class="vtree-node" transform="translate(217,94)"><path class="vtree-link" d="M165,32C165,79 331,79 331,126"/><path class="vtree-link" d="M165,32C165,79 7,79 7,126"/><g class="vtree-node" transform="translate(-154,94)"><path class="vtree-link" d="M161,32C161,75 214,75 214,118"/><path class="vtree-link" d="M161,32C161,75 108,75 108,118"/><g class="vtree-node" transform="translate(93,94)"><path class="vtree-link" d="M15,24C15,67 16,67 16,110"/><g class="vtree-node" transform="translate(15,78)"><g class="vtree-node" transform="translate(-48,0)"><g transform="translate(27,20)"><rect class="string-text" x="0" y="0" width="43" height="24"/><text x="4" y="20">Peter</text></g><g><text x="48" y="16" text-anchor="middle">SOLUTION[0]</text></g></g></g><g transform="translate(7,20)"><g transform="translate(0,0)"><rect class="string-text" x="0" y="0" width="8" height="8"/><text x="4" y="4"> </text></g><g transform="translate(8,0)"><rect class="string-text" x="0" y="0" width="8" height="8"/><text x="4" y="4"> </text></g></g><g><text x="15" y="16" text-anchor="middle">NO</text></g></g><g class="vtree-node" transform="translate(195,94)"><path class="vtree-link" d="M19,24C19,67 20,67 20,110"/><g class="vtree-node" transform="translate(19,78)"><g class="vtree-node" transform="translate(-48,0)"><g transform="translate(19,20)"><rect class="string-text" x="0" y="0" width="59" height="24"/><text x="4" y="20">Herman</text></g><g><text x="48" y="16" text-anchor="middle">SOLUTION[0]</text></g></g></g><g transform="translate(11,20)"><g transform="translate(0,0)"><rect class="string-text" x="0" y="0" width="8" height="8"/><text x="4" y="4"> </text></g><g transform="translate(8,0)"><rect class="string-text" x="0" y="0" width="8" height="8"/><text x="4" y="4"> </text></g></g><g><text x="19" y="16" text-anchor="middle">YES</text></g></g><g transform="translate(0,20)"><g transform="translate(0,0)"><rect class="string-text" x="0" y="0" width="96" height="24"/><text x="4" y="20">next_question</text></g><g transform="translate(96,0)"><rect class="string-text" x="0" y="0" width="226" height="24"/><text x="4" y="20">Does your character have a bald ...</text></g></g><g><text x="161" y="16" text-anchor="middle">NO</text></g></g><g class="vtree-node" transform="translate(178,94)"><path class="vtree-link" d="M153,32C153,75 206,75 206,118"/><path class="vtree-link" d="M153,32C153,75 100,75 100,118"/><g class="vtree-node" transform="translate(85,94)"><path class="vtree-link" d="M15,24C15,67 15,67 15,110"/><g class="vtree-node" transform="translate(15,78)"><g class="vtree-node" transform="translate(-48,0)"><g transform="translate(22,20)"><rect class="string-text" x="0" y="0" width="52" height="24"/><text x="4" y="20">Robert</text></g><g><text x="48" y="16" text-anchor="middle">SOLUTION[0]</text></g></g></g><g transform="translate(7,20)"><g transform="translate(0,0)"><rect class="string-text" x="0" y="0" width="8" height="8"/><text x="4" y="4"> </text></g><g transform="translate(8,0)"><rect class="string-text" x="0" y="0" width="8" height="8"/><text x="4" y="4"> </text></g></g><g><text x="15" y="16" text-anchor="middle">NO</text></g></g><g class="vtree-node" transform="translate(187,94)"><path class="vtree-link" d="M19,24C19,67 20,67 20,110"/><g class="vtree-node" transform="translate(19,78)"><g class="vtree-node" transform="translate(-48,0)"><g transform="translate(19,20)"><rect class="string-text" x="0" y="0" width="59" height="24"/><text x="4" y="20">Bernard</text></g><g><text x="48" y="16" text-anchor="middle">SOLUTION[0]</text></g></g></g><g transform="translate(11,20)"><g transform="translate(0,0)"><rect class="string-text" x="0" y="0" width="8" height="8"/><text x="4" y="4"> </text></g><g transform="translate(8,0)"><rect class="string-text" x="0" y="0" width="8" height="8"/><text x="4" y="4"> </text></g></g><g><text x="19" y="16" text-anchor="middle">YES</text></g></g><g transform="translate(0,20)"><g transform="translate(0,0)"><rect class="string-text" x="0" y="0" width="96" height="24"/><text x="4" y="20">next_question</text></g><g transform="translate(96,0)"><rect class="string-text" x="0" y="0" width="209" height="24"/><text x="4" y="20">Is your character wearing a hat?</text></g></g><g><text x="153" y="16" text-anchor="middle">YES</text></g></g><g transform="translate(0,20)"><g transform="translate(0,0)"><rect class="string-text" x="0" y="0" width="96" height="24"/><text x="4" y="20">next_question</text></g><g transform="translate(96,0)"><rect class="string-text" x="0" y="0" width="234" height="24"/><text x="4" y="20">Does your character have brown h...</text></g></g><g><text x="165" y="16" text-anchor="middle">YES</text></g></g><g transform="translate(0,20)"><g transform="translate(0,0)"><rect class="string-text" x="0" y="0" width="96" height="24"/><text x="4" y="20">next_question</text></g><g transform="translate(96,0)"><rect class="string-text" x="0" y="0" width="226" height="24"/><text x="4" y="20">Does your character have a big n...</text></g></g><g><text x="161" y="16" text-anchor="middle">NO</text></g></g><g class="vtree-node" transform="translate(542,94)"><path class="vtree-link" d="M161,32C161,79 329,79 329,126"/><path class="vtree-link" d="M161,32C161,79 -6,79 -6,126"/><g class="vtree-node" transform="translate(-169,94)"><path class="vtree-link" d="M163,32C163,75 216,75 216,118"/><path class="vtree-link" d="M163,32C163,75 110,75 110,118"/><g class="vtree-node" transform="translate(95,94)"><path class="vtree-link" d="M15,24C15,67 16,67 16,110"/><g class="vtree-node" transform="translate(15,78)"><g class="vtree-node" transform="translate(-48,0)"><g transform="translate(33,20)"><rect class="string-text" x="0" y="0" width="31" height="24"/><text x="4" y="20">Joe</text></g><g><text x="48" y="16" text-anchor="middle">SOLUTION[0]</text></g></g></g><g transform="translate(7,20)"><g transform="translate(0,0)"><rect class="string-text" x="0" y="0" width="8" height="8"/><text x="4" y="4"> </text></g><g transform="translate(8,0)"><rect class="string-text" x="0" y="0" width="8" height="8"/><text x="4" y="4"> </text></g></g><g><text x="15" y="16" text-anchor="middle">NO</text></g></g><g class="vtree-node" transform="translate(197,94)"><path class="vtree-link" d="M19,24C19,67 20,67 20,110"/><g class="vtree-node" transform="translate(19,78)"><g class="vtree-node" transform="translate(-48,0)"><g transform="translate(30,20)"><rect class="string-text" x="0" y="0" width="37" height="24"/><text x="4" y="20">Paul</text></g><g><text x="48" y="16" text-anchor="middle">SOLUTION[0]</text></g></g></g><g transform="translate(11,20)"><g transform="translate(0,0)"><rect class="string-text" x="0" y="0" width="8" height="8"/><text x="4" y="4"> </text></g><g transform="translate(8,0)"><rect class="string-text" x="0" y="0" width="8" height="8"/><text x="4" y="4"> </text></g></g><g><text x="19" y="16" text-anchor="middle">YES</text></g></g><g transform="translate(0,20)"><g transform="translate(0,0)"><rect class="string-text" x="0" y="0" width="96" height="24"/><text x="4" y="20">next_question</text></g><g transform="translate(96,0)"><rect class="string-text" x="0" y="0" width="229" height="24"/><text x="4" y="20">Does your character have white h...</text></g></g><g><text x="163" y="16" text-anchor="middle">NO</text></g></g><g class="vtree-node" transform="translate(166,94)"><path class="vtree-link" d="M163,32C163,75 216,75 216,118"/><path class="vtree-link" d="M163,32C163,75 110,75 110,118"/><g class="vtree-node" transform="translate(95,94)"><path class="vtree-link" d="M15,24C15,67 16,67 16,110"/><g class="vtree-node" transform="translate(15,78)"><g class="vtree-node" transform="translate(-48,0)"><g transform="translate(31,20)"><rect class="string-text" x="0" y="0" width="35" height="24"/><text x="4" y="20">Tom</text></g><g><text x="48" y="16" text-anchor="middle">SOLUTION[0]</text></g></g></g><g transform="translate(7,20)"><g transform="translate(0,0)"><rect class="string-text" x="0" y="0" width="8" height="8"/><text x="4" y="4"> </text></g><g transform="translate(8,0)"><rect class="string-text" x="0" y="0" width="8" height="8"/><text x="4" y="4"> </text></g></g><g><text x="15" y="16" text-anchor="middle">NO</text></g></g><g class="vtree-node" transform="translate(197,94)"><path class="vtree-link" d="M19,24C19,67 19,67 19,110"/><g class="vtree-node" transform="translate(19,78)"><g class="vtree-node" transform="translate(-48,0)"><g transform="translate(29,20)"><rect class="string-text" x="0" y="0" width="38" height="24"/><text x="4" y="20">Sam</text></g><g><text x="48" y="16" text-anchor="middle">SOLUTION[0]</text></g></g></g><g transform="translate(11,20)"><g transform="translate(0,0)"><rect class="string-text" x="0" y="0" width="8" height="8"/><text x="4" y="4"> </text></g><g transform="translate(8,0)"><rect class="string-text" x="0" y="0" width="8" height="8"/><text x="4" y="4"> </text></g></g><g><text x="19" y="16" text-anchor="middle">YES</text></g></g><g transform="translate(0,20)"><g transform="translate(0,0)"><rect class="string-text" x="0" y="0" width="96" height="24"/><text x="4" y="20">next_question</text></g><g transform="translate(96,0)"><rect class="string-text" x="0" y="0" width="229" height="24"/><text x="4" y="20">Does your character have white h...</text></g></g><g><text x="163" y="16" text-anchor="middle">YES</text></g></g><g transform="translate(0,20)"><g transform="translate(0,0)"><rect class="string-text" x="0" y="0" width="96" height="24"/><text x="4" y="20">next_question</text></g><g transform="translate(96,0)"><rect class="string-text" x="0" y="0" width="226" height="24"/><text x="4" y="20">Does your character have a bald ...</text></g></g><g><text x="161" y="16" text-anchor="middle">YES</text></g></g><g transform="translate(0,20)"><g transform="translate(0,0)"><rect class="string-text" x="0" y="0" width="96" height="24"/><text x="4" y="20">next_question</text></g><g transform="translate(96,0)"><rect class="string-text" x="0" y="0" width="222" height="24"/><text x="4" y="20">Is your character wearing glasse...</text></g></g><g><text x="159" y="16" text-anchor="middle">NO</text></g></g><g class="vtree-node" transform="translate(865,94)"><path class="vtree-link" d="M153,32C153,79 374,79 374,126"/><path class="vtree-link" d="M153,32C153,79 -11,79 -11,126"/><g class="vtree-node" transform="translate(-174,94)"><path class="vtree-link" d="M163,32C163,75 331,75 331,118"/><path class="vtree-link" d="M163,32C163,79 110,79 110,126"/><g class="vtree-node" transform="translate(-53,94)"><path class="vtree-link" d="M163,32C163,75 216,75 216,118"/><path class="vtree-link" d="M163,32C163,75 110,75 110,118"/><g class="vtree-node" transform="translate(95,94)"><path class="vtree-link" d="M15,24C15,67 15,67 15,110"/><g class="vtree-node" transform="translate(15,78)"><g class="vtree-node" transform="translate(-48,0)"><g transform="translate(27,20)"><rect class="string-text" x="0" y="0" width="42" height="24"/><text x="4" y="20">Anne</text></g><g><text x="48" y="16" text-anchor="middle">SOLUTION[0]</text></g></g></g><g transform="translate(7,20)"><g transform="translate(0,0)"><rect class="string-text" x="0" y="0" width="8" height="8"/><text x="4" y="4"> </text></g><g transform="translate(8,0)"><rect class="string-text" x="0" y="0" width="8" height="8"/><text x="4" y="4"> </text></g></g><g><text x="15" y="16" text-anchor="middle">NO</text></g></g><g class="vtree-node" transform="translate(197,94)"><path class="vtree-link" d="M19,24C19,67 19,67 19,110"/><g class="vtree-node" transform="translate(19,78)"><g class="vtree-node" transform="translate(-48,0)"><g transform="translate(27,20)"><rect class="string-text" x="0" y="0" width="42" height="24"/><text x="4" y="20">Anita</text></g><g><text x="48" y="16" text-anchor="middle">SOLUTION[0]</text></g></g></g><g transform="translate(11,20)"><g transform="translate(0,0)"><rect class="string-text" x="0" y="0" width="8" height="8"/><text x="4" y="4"> </text></g><g transform="translate(8,0)"><rect class="string-text" x="0" y="0" width="8" height="8"/><text x="4" y="4"> </text></g></g><g><text x="19" y="16" text-anchor="middle">YES</text></g></g><g transform="translate(0,20)"><g transform="translate(0,0)"><rect class="string-text" x="0" y="0" width="96" height="24"/><text x="4" y="20">next_question</text></g><g transform="translate(96,0)"><rect class="string-text" x="0" y="0" width="230" height="24"/><text x="4" y="20">Does your character have blond h...</text></g></g><g><text x="163" y="16" text-anchor="middle">NO</text></g></g><g class="vtree-node" transform="translate(312,94)"><path class="vtree-link" d="M19,24C19,67 19,67 19,110"/><g class="vtree-node" transform="translate(19,78)"><g class="vtree-node" transform="translate(-48,0)"><g transform="translate(24,20)"><rect class="string-text" x="0" y="0" width="48" height="24"/><text x="4" y="20">Susan</text></g><g><text x="48" y="16" text-anchor="middle">SOLUTION[0]</text></g></g></g><g transform="translate(11,20)"><g transform="translate(0,0)"><rect class="string-text" x="0" y="0" width="8" height="8"/><text x="4" y="4"> </text></g><g transform="translate(8,0)"><rect class="string-text" x="0" y="0" width="8" height="8"/><text x="4" y="4"> </text></g></g><g><text x="19" y="16" text-anchor="middle">YES</text></g></g><g transform="translate(0,20)"><g transform="translate(0,0)"><rect class="string-text" x="0" y="0" width="96" height="24"/><text x="4" y="20">next_question</text></g><g transform="translate(96,0)"><rect class="string-text" x="0" y="0" width="229" height="24"/><text x="4" y="20">Does your character have white h...</text></g></g><g><text x="163" y="16" text-anchor="middle">NO</text></g></g><g class="vtree-node" transform="translate(215,94)"><path class="vtree-link" d="M159,32C159,75 212,75 212,118"/><path class="vtree-link" d="M159,32C159,75 106,75 106,118"/><g class="vtree-node" transform="translate(91,94)"><path class="vtree-link" d="M15,24C15,67 15,67 15,110"/><g class="vtree-node" transform="translate(15,78)"><g class="vtree-node" transform="translate(-48,0)"><g transform="translate(26,20)"><rect class="string-text" x="0" y="0" width="44" height="24"/><text x="4" y="20">Maria</text></g><g><text x="48" y="16" text-anchor="middle">SOLUTION[0]</text></g></g></g><g transform="translate(7,20)"><g transform="translate(0,0)"><rect class="string-text" x="0" y="0" width="8" height="8"/><text x="4" y="4"> </text></g><g transform="translate(8,0)"><rect class="string-text" x="0" y="0" width="8" height="8"/><text x="4" y="4"> </text></g></g><g><text x="15" y="16" text-anchor="middle">NO</text></g></g><g class="vtree-node" transform="translate(193,94)"><path class="vtree-link" d="M19,24C19,67 20,67 20,110"/><g class="vtree-node" transform="translate(19,78)"><g class="vtree-node" transform="translate(-48,0)"><g transform="translate(26,20)"><rect class="string-text" x="0" y="0" width="45" height="24"/><text x="4" y="20">Claire</text></g><g><text x="48" y="16" text-anchor="middle">SOLUTION[0]</text></g></g></g><g transform="translate(11,20)"><g transform="translate(0,0)"><rect class="string-text" x="0" y="0" width="8" height="8"/><text x="4" y="4"> </text></g><g transform="translate(8,0)"><rect class="string-text" x="0" y="0" width="8" height="8"/><text x="4" y="4"> </text></g></g><g><text x="19" y="16" text-anchor="middle">YES</text></g></g><g transform="translate(0,20)"><g transform="translate(0,0)"><rect class="string-text" x="0" y="0" width="96" height="24"/><text x="4" y="20">next_question</text></g><g transform="translate(96,0)"><rect class="string-text" x="0" y="0" width="222" height="24"/><text x="4" y="20">Is your character wearing glasse...</text></g></g><g><text x="159" y="16" text-anchor="middle">YES</text></g></g><g transform="translate(0,20)"><g transform="translate(0,0)"><rect class="string-text" x="0" y="0" width="96" height="24"/><text x="4" y="20">next_question</text></g><g transform="translate(96,0)"><rect class="string-text" x="0" y="0" width="209" height="24"/><text x="4" y="20">Is your character wearing a hat?</text></g></g><g><text x="153" y="16" text-anchor="middle">YES</text></g></g><g transform="translate(0,20)"><g transform="translate(0,0)"><rect class="string-text" x="0" y="0" width="96" height="24"/><text x="4" y="20">next_question</text></g><g transform="translate(96,0)"><rect class="string-text" x="0" y="0" width="181" height="24"/><text x="4" y="20">Is your character a woman?</text></g></g><g><text x="139" y="16" text-anchor="middle">NO</text></g></g><g class="vtree-node" transform="translate(1266,74)"><path class="vtree-link" d="M161,32C161,79 495,79 495,126"/><path class="vtree-link" d="M161,32C161,79 -177,79 -177,126"/><g class="vtree-node" transform="translate(-340,94)"><path class="vtree-link" d="M163,32C163,79 331,79 331,126"/><path class="vtree-link" d="M163,32C163,79 -3,79 -3,126"/><g class="vtree-node" transform="translate(-166,94)"><path class="vtree-link" d="M163,32C163,75 216,75 216,118"/><path class="vtree-link" d="M163,32C163,75 110,75 110,118"/><g class="vtree-node" transform="translate(95,94)"><path class="vtree-link" d="M15,24C15,67 15,67 15,110"/><g class="vtree-node" transform="translate(15,78)"><g class="vtree-node" transform="translate(-48,0)"><g transform="translate(25,20)"><rect class="string-text" x="0" y="0" width="46" height="24"/><text x="4" y="20">Alfred</text></g><g><text x="48" y="16" text-anchor="middle">SOLUTION[0]</text></g></g></g><g transform="translate(7,20)"><g transform="translate(0,0)"><rect class="string-text" x="0" y="0" width="8" height="8"/><text x="4" y="4"> </text></g><g transform="translate(8,0)"><rect class="string-text" x="0" y="0" width="8" height="8"/><text x="4" y="4"> </text></g></g><g><text x="15" y="16" text-anchor="middle">NO</text></g></g><g class="vtree-node" transform="translate(197,94)"><path class="vtree-link" d="M19,24C19,67 20,67 20,110"/><g class="vtree-node" transform="translate(19,78)"><g class="vtree-node" transform="translate(-48,0)"><g transform="translate(20,20)"><rect class="string-text" x="0" y="0" width="57" height="24"/><text x="4" y="20">Charles</text></g><g><text x="48" y="16" text-anchor="middle">SOLUTION[0]</text></g></g></g><g transform="translate(11,20)"><g transform="translate(0,0)"><rect class="string-text" x="0" y="0" width="8" height="8"/><text x="4" y="4"> </text></g><g transform="translate(8,0)"><rect class="string-text" x="0" y="0" width="8" height="8"/><text x="4" y="4"> </text></g></g><g><text x="19" y="16" text-anchor="middle">YES</text></g></g><g transform="translate(0,20)"><g transform="translate(0,0)"><rect class="string-text" x="0" y="0" width="96" height="24"/><text x="4" y="20">next_question</text></g><g transform="translate(96,0)"><rect class="string-text" x="0" y="0" width="230" height="24"/><text x="4" y="20">Does your character have blond h...</text></g></g><g><text x="163" y="16" text-anchor="middle">NO</text></g></g><g class="vtree-node" transform="translate(170,94)"><path class="vtree-link" d="M161,32C161,75 214,75 214,118"/><path class="vtree-link" d="M161,32C161,75 108,75 108,118"/><g class="vtree-node" transform="translate(93,94)"><path class="vtree-link" d="M15,24C15,67 15,67 15,110"/><g class="vtree-node" transform="translate(15,78)"><g class="vtree-node" transform="translate(-48,0)"><g transform="translate(29,20)"><rect class="string-text" x="0" y="0" width="38" height="24"/><text x="4" y="20">Alex</text></g><g><text x="48" y="16" text-anchor="middle">SOLUTION[0]</text></g></g></g><g transform="translate(7,20)"><g transform="translate(0,0)"><rect class="string-text" x="0" y="0" width="8" height="8"/><text x="4" y="4"> </text></g><g transform="translate(8,0)"><rect class="string-text" x="0" y="0" width="8" height="8"/><text x="4" y="4"> </text></g></g><g><text x="15" y="16" text-anchor="middle">NO</text></g></g><g class="vtree-node" transform="translate(195,94)"><path class="vtree-link" d="M19,24C19,67 19,67 19,110"/><g class="vtree-node" transform="translate(19,78)"><g class="vtree-node" transform="translate(-48,0)"><g transform="translate(30,20)"><rect class="string-text" x="0" y="0" width="36" height="24"/><text x="4" y="20">Max</text></g><g><text x="48" y="16" text-anchor="middle">SOLUTION[0]</text></g></g></g><g transform="translate(11,20)"><g transform="translate(0,0)"><rect class="string-text" x="0" y="0" width="8" height="8"/><text x="4" y="4"> </text></g><g transform="translate(8,0)"><rect class="string-text" x="0" y="0" width="8" height="8"/><text x="4" y="4"> </text></g></g><g><text x="19" y="16" text-anchor="middle">YES</text></g></g><g transform="translate(0,20)"><g transform="translate(0,0)"><rect class="string-text" x="0" y="0" width="96" height="24"/><text x="4" y="20">next_question</text></g><g transform="translate(96,0)"><rect class="string-text" x="0" y="0" width="226" height="24"/><text x="4" y="20">Does your character have a big n...</text></g></g><g><text x="161" y="16" text-anchor="middle">YES</text></g></g><g transform="translate(0,20)"><g transform="translate(0,0)"><rect class="string-text" x="0" y="0" width="96" height="24"/><text x="4" y="20">next_question</text></g><g transform="translate(96,0)"><rect class="string-text" x="0" y="0" width="229" height="24"/><text x="4" y="20">Does your character have black h...</text></g></g><g><text x="163" y="16" text-anchor="middle">NO</text></g></g><g class="vtree-node" transform="translate(334,94)"><path class="vtree-link" d="M161,32C161,79 329,79 329,126"/><path class="vtree-link" d="M161,32C161,79 -9,79 -9,126"/><g class="vtree-node" transform="translate(-172,94)"><path class="vtree-link" d="M163,32C163,75 216,75 216,118"/><path class="vtree-link" d="M163,32C163,75 110,75 110,118"/><g class="vtree-node" transform="translate(95,94)"><path class="vtree-link" d="M15,24C15,67 16,67 16,110"/><g class="vtree-node" transform="translate(15,78)"><g class="vtree-node" transform="translate(-48,0)"><g transform="translate(27,20)"><rect class="string-text" x="0" y="0" width="43" height="24"/><text x="4" y="20">Philip</text></g><g><text x="48" y="16" text-anchor="middle">SOLUTION[0]</text></g></g></g><g transform="translate(7,20)"><g transform="translate(0,0)"><rect class="string-text" x="0" y="0" width="8" height="8"/><text x="4" y="4"> </text></g><g transform="translate(8,0)"><rect class="string-text" x="0" y="0" width="8" height="8"/><text x="4" y="4"> </text></g></g><g><text x="15" y="16" text-anchor="middle">NO</text></g></g><g class="vtree-node" transform="translate(197,94)"><path class="vtree-link" d="M19,24C19,67 20,67 20,110"/><g class="vtree-node" transform="translate(19,78)"><g class="vtree-node" transform="translate(-48,0)"><g transform="translate(26,20)"><rect class="string-text" x="0" y="0" width="45" height="24"/><text x="4" y="20">David</text></g><g><text x="48" y="16" text-anchor="middle">SOLUTION[0]</text></g></g></g><g transform="translate(11,20)"><g transform="translate(0,0)"><rect class="string-text" x="0" y="0" width="8" height="8"/><text x="4" y="4"> </text></g><g transform="translate(8,0)"><rect class="string-text" x="0" y="0" width="8" height="8"/><text x="4" y="4"> </text></g></g><g><text x="19" y="16" text-anchor="middle">YES</text></g></g><g transform="translate(0,20)"><g transform="translate(0,0)"><rect class="string-text" x="0" y="0" width="96" height="24"/><text x="4" y="20">next_question</text></g><g transform="translate(96,0)"><rect class="string-text" x="0" y="0" width="230" height="24"/><text x="4" y="20">Does your character have blond h...</text></g></g><g><text x="163" y="16" text-anchor="middle">NO</text></g></g><g class="vtree-node" transform="translate(164,94)"><path class="vtree-link" d="M165,32C165,75 218,75 218,118"/><path class="vtree-link" d="M165,32C165,75 112,75 112,118"/><g class="vtree-node" transform="translate(97,94)"><path class="vtree-link" d="M15,24C15,67 16,67 16,110"/><g class="vtree-node" transform="translate(15,78)"><g class="vtree-node" transform="translate(-48,0)"><g transform="translate(35,20)"><rect class="string-text" x="0" y="0" width="27" height="24"/><text x="4" y="20">Bill</text></g><g><text x="48" y="16" text-anchor="middle">SOLUTION[0]</text></g></g></g><g transform="translate(7,20)"><g transform="translate(0,0)"><rect class="string-text" x="0" y="0" width="8" height="8"/><text x="4" y="4"> </text></g><g transform="translate(8,0)"><rect class="string-text" x="0" y="0" width="8" height="8"/><text x="4" y="4"> </text></g></g><g><text x="15" y="16" text-anchor="middle">NO</text></g></g><g class="vtree-node" transform="translate(199,94)"><path class="vtree-link" d="M19,24C19,67 20,67 20,110"/><g class="vtree-node" transform="translate(19,78)"><g class="vtree-node" transform="translate(-48,0)"><g transform="translate(20,20)"><rect class="string-text" x="0" y="0" width="57" height="24"/><text x="4" y="20">Richard</text></g><g><text x="48" y="16" text-anchor="middle">SOLUTION[0]</text></g></g></g><g transform="translate(11,20)"><g transform="translate(0,0)"><rect class="string-text" x="0" y="0" width="8" height="8"/><text x="4" y="4"> </text></g><g transform="translate(8,0)"><rect class="string-text" x="0" y="0" width="8" height="8"/><text x="4" y="4"> </text></g></g><g><text x="19" y="16" text-anchor="middle">YES</text></g></g><g transform="translate(0,20)"><g transform="translate(0,0)"><rect class="string-text" x="0" y="0" width="96" height="24"/><text x="4" y="20">next_question</text></g><g transform="translate(96,0)"><rect class="string-text" x="0" y="0" width="234" height="24"/><text x="4" y="20">Does your character have a moust...</text></g></g><g><text x="165" y="16" text-anchor="middle">YES</text></g></g><g transform="translate(0,20)"><g transform="translate(0,0)"><rect class="string-text" x="0" y="0" width="96" height="24"/><text x="4" y="20">next_question</text></g><g transform="translate(96,0)"><rect class="string-text" x="0" y="0" width="226" height="24"/><text x="4" y="20">Does your character have a bald ...</text></g></g><g><text x="161" y="16" text-anchor="middle">YES</text></g></g><g transform="translate(0,20)"><g transform="translate(0,0)"><rect class="string-text" x="0" y="0" width="96" height="24"/><text x="4" y="20">next_question</text></g><g transform="translate(96,0)"><rect class="string-text" x="0" y="0" width="226" height="24"/><text x="4" y="20">Does your character have a chin-...</text></g></g><g><text x="161" y="16" text-anchor="middle">YES</text></g></g><g transform="translate(0,0)"><rect class="string-text" x="0" y="0" width="96" height="24"/><text x="4" y="20">next_question</text></g><g transform="translate(96,0)"><rect class="string-text" x="0" y="0" width="229" height="24"/><text x="4" y="20">Does your character have any fac...</text></g></g></g></g></svg>